<?xml version="1.0" encoding="UTF-8"?>
<svg width="125px" height="125px" viewBox="0 0 125 125" version="1.1" xmlns="http://www.w3.org/2000/svg" xmlns:xlink="http://www.w3.org/1999/xlink">
    <!-- Generator: Sketch 59 (86127) - https://sketch.com -->
    <title>Group 2</title>
    <desc>Created with Sketch.</desc>
    <g id="Screen" stroke="none" stroke-width="1" fill="none" fill-rule="evenodd">
        <g id="Group-2">
            <g id="logo" fill="#1E2B3A" fill-rule="nonzero">
                <rect id="Rectangle" x="0" y="0" width="125" height="125" rx="26"></rect>
            </g>
            <path d="M62.7,36.8 C61.1799924,34.88 59.120013,33.4600046 56.52,32.54 C53.919987,31.6199954 51.4600116,31.16 49.14,31.16 C47.7799932,31.16 46.3800072,31.3199984 44.94,31.64 C43.4999928,31.9600016 42.1400064,32.4599966 40.86,33.14 C39.5799936,33.8200034 38.540004,34.7199944 37.74,35.84 C36.939996,36.9600056 36.54,38.319992 36.54,39.92 C36.54,42.4800128 37.4999904,44.4399932 39.42,45.8 C41.34,47.1600068 43.7599854,48.3199952 46.68,49.28 C49.6000146,50.2400048 52.7399832,51.1999952 56.1,52.16 C59.4600168,53.1200048 62.5999854,54.4799912 65.52,56.24 C68.4400146,58.0000088 70.8599904,60.3599852 72.78,63.32 C74.7000096,66.2800148 75.66,70.2399752 75.66,75.2 C75.66,79.9200236 74.7800088,84.0399824 73.02,87.56 C71.2599912,91.0800176 68.880015,93.9999884 65.88,96.32 C62.879985,98.6400116 59.4000198,100.359994 55.44,101.48 C51.4799802,102.600006 47.300022,103.16 42.9,103.16 C37.3799724,103.16 32.2600236,102.320008 27.54,100.64 C22.8199764,98.9599916 18.4200204,96.2400188 14.34,92.48 L27.66,77.84 C29.5800096,80.4000128 31.9999854,82.38 34.92,83.78 C37.8400146,85.180007 40.8599844,85.88 43.98,85.88 C45.5000076,85.88 47.0399922,85.7000018 48.6,85.34 C50.1600078,84.9799982 51.5599938,84.4400036 52.8,83.72 C54.0400062,82.9999964 55.0399962,82.0800056 55.8,80.96 C56.5600038,79.8399944 56.94,78.5200076 56.94,77 C56.94,74.4399872 55.9600098,72.4200074 54,70.94 C52.0399902,69.4599926 49.5800148,68.2000052 46.62,67.16 C43.6599852,66.1199948 40.4600172,65.0800052 37.02,64.04 C33.5799828,62.9999948 30.3800148,61.6000088 27.42,59.84 C24.4599852,58.0799912 22.0000098,55.7600144 20.04,52.88 C18.0799902,49.9999856 17.1,46.2000236 17.1,41.48 C17.1,36.9199772 17.999991,32.9200172 19.8,29.48 C21.600009,26.0399828 23.999985,23.1600116 27,20.84 C30.000015,18.5199884 33.4599804,16.7800058 37.38,15.62 C41.3000196,14.4599942 45.3399792,13.88 49.5,13.88 C54.300024,13.88 58.9399776,14.5599932 63.42,15.92 C67.9000224,17.2800068 71.939982,19.559984 75.54,22.76 L62.7,36.8 Z" id="S" fill="#F9F9F9" fill-rule="nonzero"></path>
            <circle id="Oval" fill="#68C2C5" cx="96" cy="88" r="14"></circle>
        </g>
    </g>
</svg>